<svg version="1.0" xmlns="http://www.w3.org/2000/svg" width="800.000000" height="800.000000" viewBox="0 0 800.000000 800.000000" preserveAspectRatio="xMidYMid meet">
  <metadata>
    <rdf:RDF xmlns:rdf="http://www.w3.org/1999/02/22-rdf-syntax-ns#" xmlns:rdfs="http://www.w3.org/2000/01/rdf-schema#" xmlns:dc="http://purl.org/dc/elements/1.1/">
      <rdf:Description dc:format="image/svg+xml" dc:Label="1" dc:ContentProducer="001191330110MACRLGPT8B00000" dc:ProduceID="393474736" dc:ReservedCode1="mP0o3Cdm0gDdlqSyNHlyDt42cLPtjqbIhQVDgPYTuwU=" dc:ContentPropagator="001191330110MACRLGPT8B00000" dc:PropagateID="393474736" dc:ReservedCode2="mP0o3Cdm0gDdlqSyNHlyDt42cLPtjqbIhQVDgPYTuwU="/>
    </rdf:RDF>
  </metadata>
  <g transform="translate(0.000000,800.000000) scale(0.100000,-0.100000)" fill="#000000" stroke="none">
    <path d="M2513 6071 c-91 -6 -118 -11 -140 -27 -42 -32 -62 -65 -74 -124 -14 -77 -27 -514 -23 -825 27 -2226 40 -2922 54 -3008 11 -70 38 -110 93 -140 l42 -22 1070 -3 c1185 -4 1897 8 1983 33 63 19 116 67 131 120 21 69 41 1520 31 2130 -10 560 -15 669 -32 728 -8 27 -48 78 -128 165 -164 179 -898 897 -960 941 l-52 36 -941 1 c-518 0 -993 -2 -1054 -5z m1867 -133 c0 -7 -5 -45 -10 -84 -23 -176 -32 -501 -20 -749 12 -267 21 -313 66 -334 30 -13 625 -15 924 -2 107 5 196 8 197 7 1 -1 7 -209 13 -461 13 -505 -3 -2127 -21 -2197 -7 -25 -15 -38 -27 -38 -9 0 -85 68 -168 151 -108 108 -157 150 -168 146 -26 -10 -19 -30 29 -77 25 -24 45 -49 45 -55 0 -12 -53 -55 -68 -55 -17 0 -172 155 -172 171 0 37 -31 26 -107 -36 -42 -36 -82 -65 -88 -65 -6 0 -41 27 -79 60 -69 62 -89 69 -94 34 -2 -13 17 -36 58 -72 33 -29 60 -57 60 -61 0 -5 -33 -36 -74 -70 l-74 -61 -61 69 -60 68 34 31 c63 55 35 86 -32 35 -29 -22 -38 -25 -53 -15 -29 18 -52 4 -45 -27 4 -22 -1 -30 -32 -51 -21 -14 -78 -56 -128 -94 l-90 -69 -820 7 c-671 6 -824 10 -841 21 -32 21 -30 -61 -65 2530 -11 844 -5 1277 20 1324 6 11 21 22 33 24 13 2 449 5 971 6 752 1 947 -2 947 -11z m640 -516 c275 -273 500 -502 500 -508 0 -16 -204 -24 -642 -24 l-387 0 -8 38 c-13 67 -9 697 6 850 8 78 18 142 23 142 5 0 234 -224 508 -498z m-60 -3203 c-27 -22 -53 -39 -58 -39 -5 0 -17 10 -28 21 -19 21 -19 22 31 65 l49 44 27 -26 28 -26 -49 -39z m128 -29 c17 -16 32 -33 32 -38 0 -4 -19 -22 -41 -40 l-42 -31 -44 32 -45 32 44 37 c24 21 48 37 53 37 6 0 25 -13 43 -29z m273 -60 l74 -70 -68 0 c-65 0 -69 1 -113 42 l-46 43 33 27 c18 16 36 28 40 28 4 0 40 -31 80 -70z m-908 47 c104 -112 109 -119 96 -128 -8 -5 -29 -9 -47 -9 -27 0 -44 10 -85 50 l-52 50 28 25 c32 28 43 31 60 12z m381 -10 l29 -23 -54 -46 c-53 -45 -82 -54 -157 -49 -11 1 135 140 148 141 3 0 18 -10 34 -23z m-456 -122 c-3 -3 -37 -5 -74 -3 l-69 3 44 33 45 33 30 -30 c16 -17 27 -33 24 -36z m569 35 l34 -30 -73 0 -73 1 35 29 c19 16 37 30 39 30 2 0 19 -13 38 -30z m241 7 c12 -13 19 -27 15 -30 -3 -4 -31 -7 -62 -7 l-55 0 34 30 c19 16 38 29 41 30 3 0 15 -10 27 -23z"/>
    <path d="M2630 5831 c0 -10 33 -54 74 -97 l74 -79 -55 -57 c-58 -59 -65 -88 -20 -88 23 0 87 -56 87 -76 0 -5 -27 -33 -60 -62 -35 -31 -60 -61 -60 -73 0 -34 37 -21 99 37 l61 56 29 -24 c17 -12 30 -27 30 -33 1 -5 -54 -59 -120 -120 -120 -109 -144 -136 -132 -149 17 -16 46 0 119 67 43 40 162 147 264 239 331 297 328 294 308 314 -19 19 -12 24 -197 -143 -50 -46 -95 -83 -99 -83 -9 0 -52 55 -52 66 0 14 52 54 70 54 13 0 17 5 14 15 -4 9 16 36 55 73 62 58 74 85 45 96 -10 4 -35 -13 -74 -50 -36 -34 -65 -54 -74 -51 -7 3 -26 22 -41 42 l-28 36 42 35 c22 20 41 44 41 55 0 31 -40 23 -82 -18 l-38 -37 -38 37 c-69 68 -102 34 -35 -35 l37 -38 -27 -28 -28 -27 -75 83 c-75 81 -114 103 -114 63z m350 -215 c0 -14 -31 -46 -44 -46 -6 0 -26 19 -45 41 l-33 40 23 25 23 24 38 -37 c21 -20 38 -41 38 -47z m-125 -46 l39 -40 -29 -30 -29 -30 -38 37 c-21 20 -38 41 -38 47 0 11 40 56 50 56 3 0 23 -18 45 -40z m132 -154 c-3 -8 -18 -22 -32 -32 -25 -16 -27 -16 -50 6 -31 29 -31 37 1 71 l25 27 31 -28 c19 -18 28 -34 25 -44z"/>
    <path d="M3993 4325 c-13 -9 -28 -25 -34 -36 -6 -12 -30 -129 -54 -262 -72 -402 -173 -954 -201 -1092 -14 -71 -28 -161 -31 -200 -5 -65 -4 -72 20 -93 25 -24 125 -54 217 -67 46 -6 52 -5 78 22 30 30 52 125 157 688 25 132 47 247 50 255 11 39 96 563 101 625 6 87 -5 112 -67 143 -63 31 -203 41 -236 17z m170 -127 c10 -5 16 -16 13 -26 -3 -9 -14 -78 -26 -152 -48 -307 -233 -1301 -245 -1318 -4 -4 -99 20 -107 27 -4 4 8 88 26 186 60 312 115 607 130 695 8 47 32 182 54 300 22 118 43 237 47 263 l6 49 42 -7 c23 -4 50 -12 60 -17z"/>
    <path d="M3073 4073 c-32 -31 -126 -197 -228 -404 -74 -149 -80 -191 -44 -276 37 -88 259 -509 280 -531 30 -33 74 -28 175 22 102 49 124 67 124 102 0 13 -41 106 -90 205 -50 99 -100 204 -111 232 -19 49 -20 53 -3 96 22 60 131 310 145 335 6 11 14 46 16 78 7 73 -5 88 -104 135 -88 41 -121 42 -160 6z m117 -118 c17 -9 30 -18 30 -21 0 -3 -34 -82 -75 -174 -41 -92 -82 -195 -91 -229 -17 -59 -17 -64 0 -119 21 -66 135 -308 165 -351 12 -16 21 -34 21 -40 0 -15 -81 -55 -90 -44 -4 4 -63 118 -130 252 l-122 244 12 41 c24 82 223 456 241 456 6 0 23 -7 39 -15z"/>
    <path d="M4740 4069 c-36 -16 -80 -44 -97 -61 -55 -53 -49 -81 67 -317 55 -111 100 -212 100 -224 0 -11 -49 -114 -110 -227 -71 -134 -110 -218 -110 -238 0 -44 40 -86 122 -127 145 -72 155 -64 365 321 l108 199 0 72 0 71 -127 255 c-136 272 -162 307 -221 307 -18 -1 -61 -14 -97 -31z m196 -307 c57 -112 110 -225 119 -252 20 -60 21 -57 -117 -311 -129 -239 -127 -236 -166 -220 -61 26 -61 29 27 189 106 195 134 259 133 307 0 29 -26 92 -96 239 -53 109 -96 203 -96 207 0 13 62 50 79 47 8 -2 60 -94 117 -206z"/>
  </g>
</svg>